<svg width="22" height="16" viewBox="0 0 22 16" fill="none"
  xmlns="http://www.w3.org/2000/svg">
  <path d="M0 4.99999L2 6.99999C6.97 2.02999 15.03 2.02999 20 6.99999L22 4.99999C15.93 -1.07001 6.08 -1.07001 0 4.99999ZM8 13L11 16L14 13C13.6064 12.6054 13.1388 12.2923 12.624 12.0786C12.1092 11.865 11.5574 11.755 11 11.755C10.4426 11.755 9.89076 11.865 9.37596 12.0786C8.86117 12.2923 8.39359 12.6054 8 13V13ZM4 8.99999L6 11C7.32646 9.67463 9.12487 8.93014 11 8.93014C12.8751 8.93014 14.6735 9.67463 16 11L18 8.99999C14.14 5.13999 7.87 5.13999 4 8.99999Z" fill="black"/>
</svg>
